# xmcd
#
# Track frame offsets:
#	150
#	13745
#	25641
#	38847
#	51578
#	68124
#	89449
#	103336
#	117511
#	128960
#	146561
#	164501
#	175982
#	192081
#	210308
#	226576
#	240885
#	257686
#	273112
#	288435
#
# Disc length: 4053
#
# Revision: 3
# Processed by: cddbd v1.5.1PL0 Copyright (c) Steve Scherf et al.
# Submitted via: audiograbber 1.81.03
# Normalized: r2:DSETVAR1
#
DISCID=180fd314
DTITLE=Various Artist - Country Classics [CD2]
DYEAR=1900
DGENRE=Country
TTITLE0=Loretta Lynn - Coal Miner's Daughter
TTITLE1=Charlie Rich - The Most Beautiful Girl
TTITLE2=Dolly Parton - I Will Always Love You
TTITLE3=Mickey Gilley - Room Full Of Roses
TTITLE4=Cal Smith - Country Bumpkin
TTITLE5=The Allman Brothers Band - Ramblin Man
TTITLE6=Slim Dusty - Lights On The Hill
TTITLE7=Glen Campbell - Rhinestone Cowboy
TTITLE8=Willie Nelson - On The Road Again
TTITLE9=Linda Ronstadt - Blue Bayou
TTITLE10=Rita Coolidge - Your Love Has Lifted Me Higher and Higher
TTITLE11=Crystal Gale - Don't It Make My Brown Eyes Blue
TTITLE12=Kenny Rogers - The Gambler
TTITLE13=Don Williams - I Believe In You
TTITLE14=The Charlie Daniels Band - The Devil Went Down To Georgia
TTITLE15=Eddie Rabbitt - I Love A Rainy Night
TTITLE16=The Oak Ridge Boys - Elvira
TTITLE17=Juice Newton - Queen Of Hearts
TTITLE18=Nitty Gritty Dirt Band - Jambalaya On The Bayou
TTITLE19=Billy Ray Cyrus - Achy Breaky Heart
EXTD=
EXTT0=
EXTT1=
EXTT2=
EXTT3=
EXTT4=
EXTT5=
EXTT6=
EXTT7=
EXTT8=
EXTT9=
EXTT10=
EXTT11=
EXTT12=
EXTT13=
EXTT14=
EXTT15=
EXTT16=
EXTT17=
EXTT18=
EXTT19=
PLAYORDER=
